<!DOCTYPE svg PUBLIC "-//W3C//DTD SVG 1.1//EN" "http://www.w3.org/Graphics/SVG/1.1/DTD/svg11.dtd">
<!-- Uploaded to: SVG Repo, www.svgrepo.com, Transformed by: SVG Repo Mixer Tools -->
<svg width="800px" height="800px" viewBox="-102.4 -102.4 1228.80 1228.80" class="icon" version="1.1" xmlns="http://www.w3.org/2000/svg" fill="#000000">
<g id="SVGRepo_bgCarrier" stroke-width="0">
<path transform="translate(-102.4, -102.4), scale(38.4)" d="M16,27.777649762108922C17.83683285740704,28.01312312257118,19.033433760929796,25.716941049267927,20.786272248738697,25.119479849529156C22.947378601767042,24.382859103565618,25.688894618518777,25.370244097685966,27.422371740974363,23.88429394428026C29.113160314716993,22.434936748858807,30.20494313452237,19.756643912193955,29.51104346583303,17.640537693023614C28.741627107325023,15.29413688778109,24.9621127333263,15.228783727791567,23.859579359022902,13.019254721390055C22.924814638101573,11.145942027938533,25.325302735078886,8.54653593654812,24.119292330813096,6.835213513470459C23.010535115496268,5.261892854204685,20.49542265418257,5.727119196780524,18.58090741761966,5.528846989050638C16.859731043690967,5.350597459857013,15.079424993712914,5.098628702778853,13.469230683245554,5.732265260567788C11.922384420685614,6.340973374157304,11.331523896889356,8.370215421528997,9.788585697774288,8.988762623654194C7.1543070405861915,10.044816387801296,2.248182331665163,7.76751557479869,1.5381018776113198,10.515325492761843C0.7797274774754958,13.45001928179066,7.40149596417449,13.991106908788998,7.716859485173275,17.005755348618912C8.040875633968138,20.103116686894612,1.4670369513420511,22.25707592952586,3.04714674423931,24.94070905775242C4.561455111888133,27.512586100753136,8.901721032347872,23.331138326543137,11.817186578765273,23.969685117544728C13.686197789212764,24.379036931783723,14.102216224955196,27.53436277976945,16,27.777649762108922" fill="#c0c6c8" strokewidth="0"/>
</g>
<g id="SVGRepo_tracerCarrier" stroke-linecap="round" stroke-linejoin="round"/>
<g id="SVGRepo_iconCarrier">
<path d="M190.171429 782.628571l277.942857-277.942857 160.914285 146.285715L870.4 365.714286v555.885714l-687.542857 7.314286z" fill="#cff2d0"/>
<path d="M870.4 928.914286c-14.628571 0-21.942857-7.314286-21.942857-21.942857V387.657143c0-14.628571 7.314286-21.942857 21.942857-21.942857 14.628571 0 21.942857 7.314286 21.942857 21.942857v519.314286c0 14.628571-7.314286 21.942857-21.942857 21.942857zM658.285714 928.914286h-14.628571c-7.314286 0-14.628571-7.314286-14.628572-14.628572V650.971429c0-7.314286 7.314286-14.628571 14.628572-14.628572H658.285714c7.314286 0 14.628571 7.314286 14.628572 14.628572v263.314285c0 7.314286-7.314286 14.628571-14.628572 14.628572zM424.228571 928.914286h-7.314285c-7.314286 0-14.628571-7.314286-14.628572-14.628572V614.4c0-7.314286 7.314286-14.628571 14.628572-14.628571h7.314285c7.314286-7.314286 14.628571 0 14.628572 14.628571v299.885714c0 7.314286-7.314286 14.628571-14.628572 14.628572zM182.857143 928.914286h-21.942857c-7.314286 0-7.314286-7.314286-7.314286-7.314286v-131.657143c0-7.314286 7.314286-7.314286 7.314286-7.314286h21.942857c7.314286 0 7.314286 7.314286 7.314286 7.314286v131.657143s0 7.314286-7.314286 7.314286zM190.171429 614.4l277.942857-256L585.142857 453.485714l219.428572-241.371428 65.828571 73.142857 58.514286-226.742857-241.371429 36.571428 73.142857 80.457143-182.857143 197.485714-109.714285-95.085714-314.514286 292.571429z" fill="#1e6838"/>
</g>
</svg>