<!DOCTYPE svg PUBLIC "-//W3C//DTD SVG 1.1//EN" "http://www.w3.org/Graphics/SVG/1.1/DTD/svg11.dtd">
<!-- Uploaded to: SVG Repo, www.svgrepo.com, Transformed by: SVG Repo Mixer Tools -->
<svg width="800px" height="800px" viewBox="0 0 24.00 24.00" fill="none" xmlns="http://www.w3.org/2000/svg">
<g id="SVGRepo_bgCarrier" stroke-width="0">
<path transform="translate(0, 0), scale(0.75)" d="M16,29.530213378369808C17.77685294356419,28.844948190445116,18.654355857948264,26.566617401278258,20.5055961150264,26.11973456270927C22.9183652263729,25.53730064838207,26.24720684343098,28.564970205696415,27.849892662056064,26.66969127741058C29.484808417988422,24.73629837798418,25.70592757239337,21.80300082534234,26.247466701545413,19.32960376782296C26.713676129504012,17.200263586798208,29.90898028381484,16.5662321111016,30.520111676286312,14.47387476629171C31.11999496363115,12.420028052201873,30.594599643254845,10.044165780718052,29.495781164406413,8.208207111805681C28.39841470339926,6.374674544014133,26.332254092893606,5.386789622867563,24.462448033909563,4.352439523200053C22.719320419528508,3.3881661361259434,20.892695524440455,2.4178539418041503,18.90186406405119,2.347802950651287C16.983942376398506,2.2803174211894537,15.305234370436487,3.5057200479762773,13.441809190808161,3.9646584932850093C11.636165229633423,4.409366143145102,9.610399260165606,4.050928189990408,8.027024505876085,5.026140677528117C6.428128738735182,6.010912674279227,5.5024792914170275,7.771285303838196,4.593453820947955,9.414427493000396C3.69359914393823,11.040992679503507,3.0903654367984377,12.781856120251268,2.7277539424346333,14.605030727861692C2.3450619979197853,16.52916784602077,1.7815823254782182,18.557147968611392,2.405100542473644,20.417250602056363C3.028150409648601,22.275956036974204,5.008670493455617,23.272638214705392,6.164053292978425,24.85632619450024C7.448085149467154,26.616353968528674,7.658583090842856,29.380396485899876,9.626351436931461,30.315449056593675C11.581138713566839,31.244333227238393,13.980707069279589,30.30897852866382,16,29.530213378369808" fill="#C0C6C8" strokewidth="0"/>
</g>
<g id="SVGRepo_tracerCarrier" stroke-linecap="round" stroke-linejoin="round"/>
<g id="SVGRepo_iconCarrier"> <path d="M9 5H7C5.89543 5 5 5.89543 5 7V19C5 20.1046 5.89543 21 7 21H9M15 5H17C18.1046 5 19 5.89543 19 7V9" stroke="#1E6838" stroke-width="0.984" stroke-linecap="round" stroke-linejoin="round"/> <path d="M14.902 20.3343L12.7153 20.7716L13.1526 18.585C13.1914 18.3914 13.2865 18.2136 13.4261 18.074L17.5 14L19.5 12L21.4869 13.9869L19.4869 15.9869L15.413 20.0608C15.2734 20.2004 15.0956 20.2956 14.902 20.3343Z" stroke="#1E6838" stroke-width="0.984" stroke-linecap="round" stroke-linejoin="round"/> <path d="M9 5C9 3.89543 9.89543 3 11 3H13C14.1046 3 15 3.89543 15 5V7H9V5Z" stroke="#1E6838" stroke-width="0.984" stroke-linecap="round" stroke-linejoin="round"/> </g>
</svg>