<!DOCTYPE svg PUBLIC "-//W3C//DTD SVG 1.1//EN" "http://www.w3.org/Graphics/SVG/1.1/DTD/svg11.dtd">
<!-- Uploaded to: SVG Repo, www.svgrepo.com, Transformed by: SVG Repo Mixer Tools -->
<svg width="800px" height="800px" viewBox="-102.4 -102.4 1228.80 1228.80" fill="#1e6838" class="icon" version="1.1" xmlns="http://www.w3.org/2000/svg" transform="matrix(-1, 0, 0, 1, 0, 0)">
<g id="SVGRepo_bgCarrier" stroke-width="0" transform="translate(0,0), scale(1)">
<path transform="translate(-102.4, -102.4), scale(38.4)" d="M16,31.66896324687534C18.631817117141107,31.607504714740504,18.86853993722828,27.12878490435074,21.17077946230884,25.852097135784774C23.391578000142363,24.62057178891539,27.41988645673661,26.943600550450675,28.58761726121333,24.688604853359124C29.841808286721136,22.266646509014258,25.386319743644094,19.88669749313408,25.664902570308733,17.17353163773681C25.935127513047604,14.54176464515626,30.783641069400336,13.215443405801928,30.02592619557992,10.680667835281724C29.298855833961284,8.248407028010032,25.109148869856185,9.496893561492739,22.964232050000707,8.139007048843297C21.272330889028567,7.067912008721974,20.933956497249266,4.329669290546428,19.027303019211587,3.7177488397048126C17.133750330203164,3.1100329497975787,15.052477110582252,4.100766913480063,13.29777948589991,5.036660408932898C11.728791365915043,5.873503039413143,11.18525002692709,7.986429347288187,9.581977730890301,8.755550438926996C7.122317209443603,9.935497719243848,2.6630129549054615,8.024534702091724,1.7274943513304812,10.587152583761892C0.7849467885877605,13.16902453091397,6.203954488964593,14.420792928151384,6.51693936207616,17.15145202967366C6.833413011215564,19.912549209301364,2.1713329657857345,22.21507323586288,3.348815102394328,24.73248242467493C4.420416969290604,27.02352387880916,8.483112248462747,24.880606692575007,10.700900204206437,26.09659110409322C12.981612242302246,27.34707597497731,13.39967838050666,31.72968629209443,16,31.66896324687534" fill="#c0c6c8" strokewidth="0"/>
</g>
<g id="SVGRepo_tracerCarrier" stroke-linecap="round" stroke-linejoin="round" stroke="#CCCCCC" stroke-width="2.048"/>
<g id="SVGRepo_iconCarrier">
<path d="M574.4 590.4l-3.2 7.2 1.6 8L608 740.8l8 33.6 28-20L760 672l5.6-4 2.4-6.4 220-556.8 8.8-22.4-22.4-8.8-140-55.2-21.6-8-8.8 20.8-229.6 559.2z m244-528l140 55.2-13.6-30.4-220 556.8 8-10.4-116 82.4 36 13.6-33.6-135.2-0.8 15.2 229.6-560-29.6 12.8z" fill=""/>
<path d="M872 301.6l-107.2-40c-7.2-2.4-10.4-10.4-8-17.6l8-20.8c2.4-7.2 10.4-10.4 17.6-8l107.2 40c7.2 2.4 10.4 10.4 8 17.6l-8 20.8c-2.4 7.2-10.4 10.4-17.6 8zM718.4 645.6l-107.2-40c-7.2-2.4-10.4-10.4-8-17.6l8-20.8c2.4-7.2 10.4-10.4 17.6-8l107.2 40c7.2 2.4 10.4 10.4 8 17.6l-8 20.8c-2.4 7.2-10.4 10.4-17.6 8zM900.8 224l-107.2-40c-7.2-2.4-10.4-10.4-8-17.6l8-20.8c2.4-7.2 10.4-10.4 17.6-8l107.2 40c7.2 2.4 10.4 10.4 8 17.6l-8 20.8c-2.4 7.2-10.4 11.2-17.6 8z" fill=""/>
<path d="M930.4 965.6H80c-31.2 0-56-24.8-56-56V290.4c0-31.2 24.8-56 56-56h576c13.6 0 24 10.4 24 24s-10.4 24-24 24H80c-4 0-8 4-8 8v619.2c0 4 4 8 8 8h850.4c4 0 8-4 8-8V320c0-13.6 10.4-24 24-24s24 10.4 24 24v589.6c0 31.2-24.8 56-56 56z" fill=""/>
<path d="M366.4 490.4H201.6c-13.6 0-25.6-11.2-25.6-25.6 0-13.6 11.2-25.6 25.6-25.6h165.6c13.6 0 25.6 11.2 25.6 25.6-0.8 14.4-12 25.6-26.4 25.6zM409.6 584h-208c-13.6 0-25.6-11.2-25.6-25.6 0-13.6 11.2-25.6 25.6-25.6h208c13.6 0 25.6 11.2 25.6 25.6-0.8 14.4-12 25.6-25.6 25.6zM441.6 676.8h-240c-13.6 0-25.6-11.2-25.6-25.6 0-13.6 11.2-25.6 25.6-25.6h240c13.6 0 25.6 11.2 25.6 25.6-0.8 14.4-12 25.6-25.6 25.6z" fill=""/>
</g>
</svg>