<!DOCTYPE svg PUBLIC "-//W3C//DTD SVG 1.1//EN" "http://www.w3.org/Graphics/SVG/1.1/DTD/svg11.dtd">
<!-- Uploaded to: SVG Repo, www.svgrepo.com, Transformed by: SVG Repo Mixer Tools -->
<svg fill="#1e6838" width="800px" height="800px" viewBox="-5 -5 60.00 60.00" xmlns="http://www.w3.org/2000/svg" xmlns:xlink="http://www.w3.org/1999/xlink">
<g id="SVGRepo_bgCarrier" stroke-width="0" transform="translate(0,0), scale(1)">
<path transform="translate(-5, -5), scale(1.875)" d="M16,25.211044358089566C19.034173627868714,25.587269957472746,22.073641369065893,27.868757032477717,24.80307414861616,26.49109524248653C27.68144060006556,25.03826024048009,29.080652475808407,21.578273435211436,29.524375031656977,18.384712215301025C29.95659066599586,15.273968643061469,29.078926236187456,12.042127983278151,27.155626929388262,9.559295789338652C25.399016828543214,7.29164660173732,22.28573725903619,7.052111205620461,19.73272026122568,5.744435369141691C16.582657954337947,4.130948124187042,13.993697635578153,0.19300049236798977,10.56230817078015,1.0600644852655599C7.147129407048594,1.9230322613569242,5.361351696227863,6.048232373160246,4.7807807962860345,9.522580772638316C4.300194887456065,12.398582451886142,7.060017951540871,14.627723980791597,7.824938652995904,17.441483884423707C8.46932849562532,19.811871165156813,7.0755811920142575,22.821509765185812,8.856126857721591,24.513736482347575C10.644343142665669,26.213253339301644,13.551751976499954,24.90747122976896,16,25.211044358089566" fill="#c0c6c8" strokewidth="0"/>
</g>
<g id="SVGRepo_tracerCarrier" stroke-linecap="round" stroke-linejoin="round" stroke="#CCCCCC" stroke-width="0.5"/>
<g id="SVGRepo_iconCarrier">
<path d="M10.585938 11L0.38085938 21.205078 A 1.0001 1.0001 0 0 0 0.18945312 21.396484L0 21.585938L0 21.832031 A 1.0001 1.0001 0 0 0 0 22.158203L0 28L3 28L3 50L9 50L9 28L11 28L11 43L17 43L17 28L33 28L33 43L39 43L39 28L41 28L41 50L47 50L47 28L50 28L50 22.167969 A 1.0001 1.0001 0 0 0 50 21.841797L50 21.585938L49.806641 21.392578 A 1.0001 1.0001 0 0 0 49.623047 21.207031 A 1.0001 1.0001 0 0 0 49.617188 21.203125L39.414062 11L39 11L10.585938 11 z M 11.414062 13L38.585938 13L46.585938 21L3.4140625 21L11.414062 13 z M 2 23L48 23L48 26L46.167969 26 A 1.0001 1.0001 0 0 0 45.841797 26L42.154297 26 A 1.0001 1.0001 0 0 0 41.984375 25.986328 A 1.0001 1.0001 0 0 0 41.839844 26L38.167969 26 A 1.0001 1.0001 0 0 0 37.841797 26L34.154297 26 A 1.0001 1.0001 0 0 0 33.984375 25.986328 A 1.0001 1.0001 0 0 0 33.839844 26L16.167969 26 A 1.0001 1.0001 0 0 0 15.841797 26L12.154297 26 A 1.0001 1.0001 0 0 0 11.984375 25.986328 A 1.0001 1.0001 0 0 0 11.839844 26L8.1679688 26 A 1.0001 1.0001 0 0 0 7.8417969 26L4.1542969 26 A 1.0001 1.0001 0 0 0 3.984375 25.986328 A 1.0001 1.0001 0 0 0 3.8398438 26L2 26L2 23 z M 5 28L7 28L7 48L5 48L5 28 z M 13 28L15 28L15 41L13 41L13 28 z M 35 28L37 28L37 41L35 41L35 28 z M 43 28L45 28L45 48L43 48L43 28 z"/>
</g>
</svg>